# Blender v2.63 (sub 0) OBJ File: 'terrain_lo12.blend'
# www.blender.org
mtllib tourelle.mtl
o tourelle_castletower1.001
v 0.143970 7.311438 1.573438
v 0.180832 7.281186 0.535933
v 0.180832 7.281186 1.573438
v 0.211083 7.244325 0.535933
v 0.211083 7.244325 1.573438
v 0.233562 7.202270 0.535933
v 1.041016 6.136719 -0.012024
v -0.520508 6.136719 -0.913574
v -1.041016 6.136719 -0.012024
v -0.520508 6.136719 0.889648
v 0.520508 6.136719 0.889648
v 0.000000 8.898438 -0.012024
v 0.233562 7.202270 1.573438
v 0.247405 7.156637 0.535933
v 0.247405 7.156637 1.573438
v 0.252079 7.109180 0.535933
v 0.252079 7.109180 1.573438
v 0.247405 7.061724 0.535933
v 0.247405 7.061724 1.573438
v 0.233562 7.016092 0.535933
v 0.233562 7.016092 1.573438
v 0.211083 6.974037 0.535933
v 0.211083 6.974037 1.573438
v 0.180832 6.937175 0.535933
v 0.180832 6.937175 1.573438
v 0.143970 6.906924 0.535933
v 0.143970 6.906924 1.573438
v 0.101915 6.884444 0.535933
v 0.101915 6.884444 1.573438
v 0.056283 6.870602 0.535933
v 0.056283 6.870602 1.573438
v 0.008826 6.865929 0.535933
v 0.008826 6.865929 1.573438
v 0.651310 6.136719 -1.140142
v 0.000000 9.122629 -0.012024
v 0.651310 6.136719 1.116227
v -0.651310 6.136719 1.116227
v -1.302621 6.136719 -0.012034
v -0.651310 6.136719 -1.140142
v 0.651310 6.136719 -1.140142
v 1.302621 6.136719 -0.012034
v 0.143970 7.311438 0.535933
v 0.101915 7.333917 1.573438
v 0.101915 7.333917 0.535933
v 0.056283 7.347759 1.573438
v 0.056283 7.347759 0.535933
v 0.008826 7.352433 1.573438
v 0.008826 7.352433 0.535933
v -0.038630 7.347759 1.573438
v -0.038630 7.347759 0.535933
v -0.084262 7.333917 1.573438
v -0.084262 7.333917 0.535933
v -0.126318 7.311438 1.573438
v -0.126318 7.311438 0.535933
v -0.163179 7.281186 1.573438
v -0.163179 7.281186 0.535933
v -0.193431 7.244324 1.573438
v -0.193431 7.244324 0.535933
v -0.215910 7.202269 1.573438
v -0.215910 7.202269 0.535933
v -0.229752 7.156637 1.573438
v -0.229752 7.156637 0.535933
v -0.234426 7.109180 1.573438
v -0.234426 7.109180 0.535933
v -0.229752 7.061724 1.573438
v -0.229752 7.061724 0.535933
v -0.215910 7.016092 1.573438
v -0.215910 7.016092 0.535933
v -0.193431 6.974037 1.573438
v -0.193431 6.974037 0.535933
v -0.163179 6.937175 1.573438
v -0.163179 6.937175 0.535933
v -0.126317 6.906924 1.573438
v -0.126317 6.906924 0.535933
v -0.084262 6.884444 1.573438
v -0.084262 6.884444 0.535933
v -0.038629 6.870602 1.573438
v -0.038629 6.870602 0.535933
v 0.520508 6.136719 -0.913574
v 0.000000 8.898438 -0.012024
v 0.000000 8.898438 -0.012024
vt 0.537430 0.070384
vt 0.537430 0.376917
vt 0.537882 0.377995
vt 0.537882 0.073420
vt 0.535567 0.067409
vt 0.535567 0.375859
vt 0.532340 0.064614
vt 0.532340 0.374865
vt 0.527854 0.062123
vt 0.527854 0.373978
vt 0.409562 0.853528
vt 0.500000 0.541625
vt 0.320401 0.542865
vt 0.409562 0.232074
vt 0.590438 0.232074
vt 0.522275 0.060048
vt 0.522275 0.373239
vt 0.515821 0.058487
vt 0.515821 0.372683
vt 0.508755 0.057516
vt 0.508755 0.372337
vt 0.501374 0.057184
vt 0.501374 0.372219
vt 0.500000 0.541553
vt 0.276447 0.542837
vt 0.386987 0.156228
vt 0.386987 0.929261
vt 0.613013 0.929261
vt 0.613013 0.156228
vt 0.590438 0.853528
vt 0.679599 0.542865
vt 0.536934 0.379052
vt 0.536934 0.076396
vt 0.534648 0.380049
vt 0.534648 0.079203
vt 0.531134 0.380951
vt 0.531134 0.081745
vt 0.526539 0.381729
vt 0.526539 0.083938
vt 0.521043 0.382358
vt 0.521043 0.085714
vt 0.514851 0.382821
vt 0.514851 0.087019
vt 0.508187 0.383103
vt 0.508187 0.087815
vt 0.501283 0.383197
vt 0.501283 0.088081
vt 0.494381 0.383100
vt 0.494381 0.087809
vt 0.487721 0.382816
vt 0.487721 0.087005
vt 0.481536 0.382351
vt 0.481536 0.085694
vt 0.476051 0.381720
vt 0.476051 0.083913
vt 0.471469 0.380940
vt 0.471469 0.081715
vt 0.467969 0.380037
vt 0.467969 0.079169
vt 0.465700 0.379039
vt 0.465700 0.076359
vt 0.464769 0.377982
vt 0.464769 0.073381
vt 0.465239 0.376903
vt 0.465239 0.070346
vt 0.467120 0.375846
vt 0.467120 0.067372
vt 0.470363 0.374853
vt 0.470363 0.064581
vt 0.474864 0.373968
vt 0.474864 0.062094
vt 0.480455 0.373231
vt 0.480455 0.060025
vt 0.486919 0.372677
vt 0.486919 0.058471
vt 0.493991 0.057508
vt 0.493991 0.372334
vt 0.723553 0.542837
vn 0.995185 -0.098018 0.000000
vn 0.956940 -0.290285 0.000000
vn 0.881922 -0.471396 0.000000
vn 0.773009 -0.634395 0.000000
vn 0.823270 -0.310328 0.475313
vn 0.823296 -0.310337 -0.475263
vn 0.000000 -0.310367 -0.950617
vn 0.634392 -0.773011 0.000000
vn 0.471406 -0.881916 0.000000
vn 0.290278 -0.956942 0.000000
vn 0.098006 -0.995186 0.000000
vn -0.810160 0.353435 0.467680
vn -0.810135 0.353428 -0.467729
vn 0.000000 0.353430 -0.935461
vn 0.000000 0.353466 0.935447
vn 0.000000 -1.000000 0.000000
vn 0.000000 -0.310329 0.950629
vn -0.823270 -0.310328 0.475313
vn 0.995185 0.098018 0.000000
vn 0.956942 0.290280 0.000000
vn 0.881919 0.471400 0.000000
vn 0.773009 0.634395 0.000000
vn 0.634398 0.773007 0.000000
vn 0.471391 0.881925 0.000000
vn 0.290287 0.956940 0.000000
vn 0.098016 0.995185 0.000000
vn -0.098016 0.995185 0.000000
vn -0.290287 0.956940 0.000000
vn -0.471391 0.881924 0.000000
vn -0.634398 0.773006 0.000000
vn -0.773013 0.634390 0.000000
vn -0.881922 0.471396 0.000000
vn -0.956941 0.290284 0.000000
vn -0.995185 0.098016 0.000000
vn -0.995185 -0.098016 0.000000
vn -0.956940 -0.290287 0.000000
vn -0.881921 -0.471398 0.000000
vn -0.773008 -0.634396 0.000000
vn -0.634392 -0.773012 0.000000
vn -0.471406 -0.881916 0.000000
vn -0.098007 -0.995186 0.000000
vn -0.000000 0.000000 1.000000
vn -0.290278 -0.956942 0.000000
vn -0.000000 0.000000 -1.000000
vn -0.206671 -0.910550 -0.357982
vn 0.452376 -0.852687 -0.261147
vn -0.612751 -0.790246 0.000000
vn 0.000000 0.999969 0.000000
vn 0.445845 -0.452589 0.772210
vn 0.999359 -0.035646 0.000000
vn 0.458266 0.399853 -0.793756
usemtl _bark5.png
s off
f 19/1/1 18/2/1 16/3/1 17/4/1
f 21/5/2 20/6/2 18/2/2 19/1/2
f 23/7/3 22/8/3 20/6/3 21/5/3
f 25/9/4 24/10/4 22/8/4 23/7/4
f 8/11/5 12/12/5 9/13/5
f 9/13/6 12/12/6 10/14/6
f 10/14/7 12/12/7 11/15/7
f 27/16/8 26/17/8 24/10/8 25/9/8
f 29/18/9 28/19/9 26/17/9 27/16/9
f 31/20/10 30/21/10 28/19/10 29/18/10
f 33/22/11 32/23/11 30/21/11 31/20/11
f 35/24/12 38/25/12 37/26/12
f 39/27/13 38/25/13 35/24/13
f 40/28/14 39/27/14 35/24/14
f 35/24/15 37/26/15 36/29/15
f 38/25/16 9/13/16 10/14/16 37/26/16
f 12/12/17 8/11/17 79/30/17
f 11/15/16 36/29/16 37/26/16 10/14/16
f 80/12/18 79/30/18 7/31/18
f 9/13/16 38/25/16 39/27/16 8/11/16
f 17/4/19 16/3/19 14/32/19 15/33/19
f 15/33/20 14/32/20 6/34/20 13/35/20
f 13/35/21 6/34/21 4/36/21 5/37/21
f 5/37/22 4/36/22 2/38/22 3/39/22
f 42/40/23 1/41/23 3/39/23 2/38/23
f 1/41/24 42/40/24 44/42/24 43/43/24
f 43/43/25 44/42/25 46/44/25 45/45/25
f 45/45/26 46/44/26 48/46/26 47/47/26
f 47/47/27 48/46/27 50/48/27 49/49/27
f 49/49/28 50/48/28 52/50/28 51/51/28
f 51/51/29 52/50/29 54/52/29 53/53/29
f 53/53/30 54/52/30 56/54/30 55/55/30
f 55/55/31 56/54/31 58/56/31 57/57/31
f 57/57/32 58/56/32 60/58/32 59/59/32
f 59/59/33 60/58/33 62/60/33 61/61/33
f 61/61/34 62/60/34 64/62/34 63/63/34
f 63/63/35 64/62/35 66/64/35 65/65/35
f 65/65/36 66/64/36 68/66/36 67/67/36
f 67/67/37 68/66/37 70/68/37 69/69/37
f 69/69/38 70/68/38 72/70/38 71/71/38
f 71/71/39 72/70/39 74/72/39 73/73/39
f 73/73/40 74/72/40 76/74/40 75/75/40
f 77/76/41 78/77/41 32/23/41 33/22/41
f 45/45/42 47/47/42 49/49/42
f 45/45/42 49/49/42 51/51/42
f 43/43/42 45/45/42 51/51/42
f 43/43/42 51/51/42 53/53/42
f 1/41/42 43/43/42 53/53/42
f 1/41/42 53/53/42 55/55/42
f 3/39/42 1/41/42 55/55/42
f 3/39/42 55/55/42 57/57/42
f 5/37/42 3/39/42 57/57/42
f 13/35/42 5/37/42 57/57/42
f 13/35/42 57/57/42 59/59/42
f 15/33/42 13/35/42 59/59/42
f 15/33/42 59/59/42 61/61/42
f 15/33/42 61/61/42 63/63/42
f 17/4/42 15/33/42 63/63/42
f 17/4/42 63/63/42 65/65/42
f 19/1/42 17/4/42 65/65/42
f 19/1/42 65/65/42 67/67/42
f 19/1/42 67/67/42 21/5/42
f 67/67/42 69/69/42 21/5/42
f 69/69/42 23/7/42 21/5/42
f 69/69/42 71/71/42 23/7/42
f 71/71/42 25/9/42 23/7/42
f 71/71/42 73/73/42 25/9/42
f 73/73/42 27/16/42 25/9/42
f 73/73/42 75/75/42 27/16/42
f 75/75/42 29/18/42 27/16/42
f 75/75/42 77/76/42 29/18/42
f 77/76/42 31/20/42 29/18/42
f 77/76/42 33/22/42 31/20/42
f 75/75/43 76/74/43 78/77/43 77/76/43
f 50/48/44 48/46/44 46/44/44
f 52/50/44 50/48/44 46/44/44
f 52/50/44 46/44/44 44/42/44
f 54/52/44 52/50/44 44/42/44
f 54/52/44 44/42/44 42/40/44
f 56/54/44 54/52/44 42/40/44
f 56/54/44 42/40/44 2/38/44
f 58/56/44 56/54/44 2/38/44
f 58/56/44 2/38/44 4/36/44
f 58/56/44 4/36/44 6/34/44
f 60/58/44 58/56/44 6/34/44
f 60/58/44 6/34/44 14/32/44
f 62/60/44 60/58/44 14/32/44
f 64/62/44 62/60/44 14/32/44
f 16/3/44 64/62/44 14/32/44
f 16/3/44 66/64/44 64/62/44
f 16/3/44 18/2/44 66/64/44
f 18/2/44 68/66/44 66/64/44
f 18/2/44 20/6/44 68/66/44
f 20/6/44 70/68/44 68/66/44
f 20/6/44 22/8/44 70/68/44
f 22/8/44 72/70/44 70/68/44
f 22/8/44 24/10/44 72/70/44
f 24/10/44 74/72/44 72/70/44
f 24/10/44 26/17/44 74/72/44
f 26/17/44 76/74/44 74/72/44
f 26/17/44 28/19/44 76/74/44
f 28/19/44 78/77/44 76/74/44
f 28/19/44 30/21/44 78/77/44
f 30/21/44 32/23/44 78/77/44
s 1
f 11/15/45 12/12/46 7/31/47
f 35/24/48 36/29/49 41/78/50
f 35/24/48 41/78/50 40/28/51
f 7/31/47 41/78/50 36/29/49 11/15/45
